<svg id="Group_16" data-name="Group 16" xmlns="http://www.w3.org/2000/svg" width="48.901" height="74.029" viewBox="0 0 48.901 74.029">
  <path id="Path_1" data-name="Path 1" d="M234.355,119.257c-.277,6.861,1.9,12.716,7.251,17.34-3.59,3.406-6,7.042-3.063,12.079.1-.159.2-.24.2-.311-.4-4.222,2.3-6.762,5.069-9.234.729-.652.475.774.483,1.1a4.831,4.831,0,0,1,2.333.424l-.106.376c-.8,0-1.609-.016-2.413,0s-1.683-.085-1.961,1.075c1.614,0,3.174.069,4.726-.024a2.138,2.138,0,0,1,2.268,1.3c-1.716,1.34-2.778,2.983-1.706,5.364l3.072-4.025c.676.806,1.473,1.626,2.12,2.55a38.856,38.856,0,0,1,7.057,16.214,23.753,23.753,0,0,1-7.2,21.875c-.93.91-1.923,1.756-3.071,2.8,0-.522-.027-.792,0-1.054a13.237,13.237,0,0,0-2.424-9.664,35.923,35.923,0,0,0-8.948-8.4c-8.158-5.6-11.83-13.671-12.766-23.17-.978-9.93,2.562-18.5,8.455-26.268a3.881,3.881,0,0,0,.313-.6Zm5.473,26.841-.5.037c-.005.959-.3,2.043.053,2.847a10.467,10.467,0,0,0,2.292,3.221c2.108,2.052,4.448,3.891,5.086,7.03a4.414,4.414,0,0,0-.575-4.828,24.02,24.02,0,0,0-2.847-2.988C241.738,149.925,240.236,148.39,239.828,146.1Zm8.273-2.4c-2.52,0-4.75-.03-6.979.035-.3.009-.59.49-1.006.859,2.435,0,4.55.042,6.66-.036C247.185,144.538,247.576,144.051,248.1,143.7Zm-7.7,2.444c-.089.83.2,1.091.872,1.067,1.459-.053,2.92-.1,4.38-.089.834,0,.933-.371.745-.978Z" transform="translate(-211.154 -119)" fill="#911727"/>
  <path id="Path_2" data-name="Path 2" d="M78.56,378.51c-1.5,12.138,2.7,21.572,12.366,28.574a50.653,50.653,0,0,1,9.039,7.818,14.066,14.066,0,0,1,3.2,7.658,4.463,4.463,0,0,1-1.97,4.449,14.5,14.5,0,0,1-7.462,2.5,23.118,23.118,0,0,1-17.712-5.524c-.227-.189-.484-.342-.246-.329,1.109-1.3,2.253-2.577,3.319-3.913,1.764-2.208,1.583-4,.454-6.531a20.375,20.375,0,0,0-3.927-5.327,12.71,12.71,0,0,1-1.3-2.2,2.736,2.736,0,0,0,.574,3.2c.618.746,1.347,1.4,1.938,2.168.828,1.074,1.574,2.212,2.311,3.259.014-.051.087-.313.176-.629.089.133.2.222.2.306-.165,3.907-3.487,5.381-5.821,7.767A24.936,24.936,0,0,1,67.5,410.81c-1.737-7.256.2-13.831,3.861-20.063q3.434-5.854,6.863-11.712C78.3,378.912,78.378,378.8,78.56,378.51Zm-7.2,35.2a4.53,4.53,0,0,0-.253.6,6.474,6.474,0,0,0,2.8,6.2.785.785,0,0,0,.684-.044,14.878,14.878,0,0,0,1.254-1.142A8.959,8.959,0,0,1,71.362,413.71Zm1.27,1.427a27.256,27.256,0,0,0,6.046.068C78.2,414.417,74.328,414.321,72.633,415.137Zm-.586-.971a14.567,14.567,0,0,1,1.182-1.426c.971-.916,1.052-1.156.511-2.584C73.35,411.642,71.238,412.237,72.047,414.165Zm1.065,2.123c.869,1.072,4.663.941,5.062,0Zm.019-2.724h5.026C77.66,412.7,74.065,412.679,73.131,413.564Zm3.965-1.55a1.614,1.614,0,0,0-2.663,0Zm-2.357,5.875c.977.9,1.6.873,2.177,0Z" transform="translate(-66.861 -355.613)" fill="#911727"/>
</svg>
